<svg width="657.9px" height="120.8px" xmlns="http://www.w3.org/2000/svg" viewBox="-78.9375 14.600000000000001 657.875 120.8" style="background: rgba(0, 0, 0, 0)" preserveAspectRatio="xMidYMid"><defs><linearGradient id="editing-gradow-gradient" x1="0" x2="1" y1="0.5" y2="0.5" gradientUnits="objectBoundingBox"><stop offset="0" stop-color="#d75fd7"></stop><stop offset="1" stop-color="#0cc4c4"></stop></linearGradient><filter id="editing-gradow-filter" x="-100%" y="-100%" width="300%" height="300%"><feFlood flood-color="#fffcd9" result="flood"></feFlood><feComposite operator="in" in2="SourceAlpha" in="flood" result="shadow"></feComposite><feOffset dx="-0.3" dy="-4" in="SourceGraphic" result="offset-1"></feOffset><feOffset dx="0.3" dy="4" in="shadow" result="offset-2"></feOffset><feMerge><feMergeNode in="offset-2"></feMergeNode><feMergeNode in="offset-1"></feMergeNode></feMerge></filter></defs><g filter="url(#editing-gradow-filter)"><g transform="matrix(1.3,0,0,1.7,-40.1,200.6)"><path d="M -8.5 -58.8 L -22.4 -58.8 L -14.3 -101.1 L -0.2 -101.1 L -8.5 -58.8 Z M 47.3 -57.5 L 47.3 -57.5 L 47.3 -57.5 Q 39.5 -57.5 39.5 -63.6 L 39.5 -63.6 L 39.5 -63.6 Q 39.5 -66.2 40.7 -71.3 L 40.7 -71.3 L 40.7 -71.3 Q 41.8 -76.4 42.2 -78.4 L 42.2 -78.4 L 42.2 -78.4 Q 43.1 -83.1 43.1 -84.6 L 43.1 -84.6 L 43.1 -84.6 Q 43.1 -87.8 40.6 -87.8 L 40.6 -87.8 L 40.6 -87.8 Q 39 -87.8 37.5 -85.6 L 37.5 -85.6 L 37.5 -85.6 Q 36 -83.4 35.3 -79 L 35.3 -79 L 31.3 -58.8 L 18.8 -57.5 L 22.3 -75 L 22.3 -75 Q 22.8 -77.8 23.3 -81.1 L 23.3 -81.1 L 23.3 -81.1 Q 23.9 -84.4 23.9 -84.9 L 23.9 -84.9 L 23.9 -84.9 Q 23.9 -87.8 21.7 -87.8 L 21.7 -87.8 L 21.7 -87.8 Q 20.2 -87.8 18.6 -85.6 L 18.6 -85.6 L 18.6 -85.6 Q 17 -83.5 16.1 -79 L 16.1 -79 L 12.2 -58.8 L -0.4 -57.5 L 6.3 -91.5 L 16.8 -92.7 L 15.7 -86.3 L 15.7 -86.3 Q 17.3 -89.7 20.4 -91.2 L 20.4 -91.2 L 20.4 -91.2 Q 23.5 -92.7 28.3 -92.7 L 28.3 -92.7 L 28.3 -92.7 Q 31 -92.7 32.8 -91.4 L 32.8 -91.4 L 32.8 -91.4 Q 34.6 -90.1 35.2 -87.9 L 35.2 -87.9 L 35.2 -87.9 Q 36.3 -90.1 39.1 -91.4 L 39.1 -91.4 L 39.1 -91.4 Q 41.8 -92.7 45.3 -92.7 L 45.3 -92.7 L 45.3 -92.7 Q 48.7 -92.7 50.4 -92 L 50.4 -92 L 50.4 -92 Q 52.1 -91.3 53.1 -90.1 L 53.1 -90.1 L 53.1 -90.1 Q 54.8 -87.8 54.8 -83.7 L 54.8 -83.7 L 54.8 -83.7 Q 54.8 -79.7 53.1 -71.3 L 53.1 -71.3 L 53.1 -71.3 Q 52.2 -67.2 52.2 -65.7 L 52.2 -65.7 L 52.2 -65.7 Q 52.2 -64.2 53.1 -63.3 L 53.1 -63.3 L 53.1 -63.3 Q 53.9 -62.4 55.2 -62.3 L 55.2 -62.3 L 55.2 -62.3 Q 54.6 -60.1 52.4 -58.8 L 52.4 -58.8 L 52.4 -58.8 Q 50.2 -57.5 47.3 -57.5 Z M 62.9 -60.7 L 62.9 -60.7 L 62.9 -60.7 Q 61.4 -62.4 60.8 -65 L 60.8 -65 L 60.8 -65 Q 60.1 -67.7 60.1 -71.9 L 60.1 -71.9 L 60.1 -71.9 Q 60.1 -76.2 61.6 -80.1 L 61.6 -80.1 L 61.6 -80.1 Q 63 -84 65.7 -86.9 L 65.7 -86.9 L 65.7 -86.9 Q 71.2 -92.7 80.3 -92.7 L 80.3 -92.7 L 80.3 -92.7 Q 83.6 -92.7 85.9 -91.7 L 85.9 -91.7 L 96.9 -92.7 L 92.1 -67.8 L 92.1 -67.8 Q 92 -67 92 -65.6 L 92 -65.6 L 92 -65.6 Q 92 -64.2 92.8 -63.3 L 92.8 -63.3 L 92.8 -63.3 Q 93.7 -62.4 95 -62.3 L 95 -62.3 L 95 -62.3 Q 94.3 -60.1 92 -58.8 L 92 -58.8 L 92 -58.8 Q 89.7 -57.5 87 -57.5 L 87 -57.5 L 87 -57.5 Q 84.4 -57.5 82.6 -58.5 L 82.6 -58.5 L 82.6 -58.5 Q 80.9 -59.5 80.4 -61.2 L 80.4 -61.2 L 80.4 -61.2 Q 79.3 -59.6 77.2 -58.6 L 77.2 -58.6 L 77.2 -58.6 Q 75 -57.5 72.1 -57.5 L 72.1 -57.5 L 72.1 -57.5 Q 69.2 -57.5 66.8 -58.3 L 66.8 -58.3 L 66.8 -58.3 Q 64.4 -59.1 62.9 -60.7 Z M 76.4 -86.7 L 76.4 -86.7 L 76.4 -86.7 Q 75.7 -85.6 75.1 -83.6 L 75.1 -83.6 L 75.1 -83.6 Q 74.4 -81.7 73.4 -76.5 L 73.4 -76.5 L 73.4 -76.5 Q 72.3 -71.2 72.3 -67.5 L 72.3 -67.5 L 72.3 -67.5 Q 72.3 -63.8 72.9 -62.7 L 72.9 -62.7 L 72.9 -62.7 Q 73.5 -61.6 74.5 -61.6 L 74.5 -61.6 L 74.5 -61.6 Q 76.5 -61.6 78 -63.6 L 78 -63.6 L 78 -63.6 Q 79.5 -65.5 80.1 -69 L 80.1 -69 L 83.5 -87.8 L 83.5 -87.8 Q 82.2 -88.9 80.6 -88.9 L 80.6 -88.9 L 80.6 -88.9 Q 79 -88.9 78.1 -88.4 L 78.1 -88.4 L 78.1 -88.4 Q 77.2 -87.9 76.4 -86.7 Z M 104.6 -85.6 L 104.6 -85.6 L 104.6 -85.6 Q 106.8 -88.6 110.1 -90.7 L 110.1 -90.7 L 110.1 -90.7 Q 113.4 -92.7 117.4 -92.7 L 117.4 -92.7 L 117.4 -92.7 Q 121.5 -92.7 123.4 -91.5 L 123.4 -91.5 L 135.9 -92.7 L 131.6 -68.2 L 131.6 -68.2 Q 129.3 -55.6 124.6 -50.7 L 124.6 -50.7 L 124.6 -50.7 Q 120.1 -46 111.2 -46 L 111.2 -46 L 111.2 -46 Q 104.5 -46 100.7 -48.1 L 100.7 -48.1 L 100.7 -48.1 Q 96.8 -50.2 96.8 -53.8 L 96.8 -53.8 L 96.8 -53.8 Q 96.8 -56.4 98.8 -57.9 L 98.8 -57.9 L 98.8 -57.9 Q 100.8 -59.4 103.9 -59.4 L 103.9 -59.4 L 103.9 -59.4 Q 106.5 -59.4 108.6 -58.2 L 108.6 -58.2 L 108.6 -58.2 Q 109.8 -57.5 110.4 -56.6 L 110.4 -56.6 L 110.4 -56.6 Q 108.9 -55.4 108.9 -53.3 L 108.9 -53.3 L 108.9 -53.3 Q 108.9 -50.5 111.5 -50.5 L 111.5 -50.5 L 111.5 -50.5 Q 115.8 -50.5 118.2 -60.6 L 118.2 -60.6 L 118.2 -60.6 Q 118.9 -63.4 119.5 -66.1 L 119.5 -66.1 L 119.5 -66.1 Q 116.6 -62.6 110.1 -62.6 L 110.1 -62.6 L 110.1 -62.6 Q 105.5 -62.6 102.9 -64.8 L 102.9 -64.8 L 102.9 -64.8 Q 100.3 -67 100.3 -72.1 L 100.3 -72.1 L 100.3 -72.1 Q 100.3 -75.3 101.4 -78.9 L 101.4 -78.9 L 101.4 -78.9 Q 102.5 -82.5 104.6 -85.6 Z M 112.9 -71.9 L 112.9 -71.9 L 112.9 -71.9 Q 112.9 -67.5 115.2 -67.5 L 115.2 -67.5 L 115.2 -67.5 Q 116.7 -67.5 118.2 -69.2 L 118.2 -69.2 L 118.2 -69.2 Q 119.3 -70.5 119.8 -72.5 L 119.8 -72.5 L 123.1 -89 L 123.1 -89 Q 122.7 -89 122.4 -89.2 L 122.4 -89.2 L 122.4 -89.2 Q 121.8 -89.4 120.9 -89.4 L 120.9 -89.4 L 120.9 -89.4 Q 117 -89.4 114.7 -83 L 114.7 -83 L 114.7 -83 Q 112.9 -78 112.9 -71.9 Z M 164.3 -69.6 L 164.3 -69.6 L 164.3 -69.6 Q 165.9 -68.6 165.9 -66.2 L 165.9 -66.2 L 165.9 -66.2 Q 165.9 -63.8 164.7 -62.2 L 164.7 -62.2 L 164.7 -62.2 Q 163.5 -60.7 161.5 -59.7 L 161.5 -59.7 L 161.5 -59.7 Q 157.4 -57.5 153 -57.5 L 153 -57.5 L 153 -57.5 Q 148.6 -57.5 146 -58.5 L 146 -58.5 L 146 -58.5 Q 143.4 -59.5 141.7 -61.3 L 141.7 -61.3 L 141.7 -61.3 Q 138.3 -64.6 138.3 -70.9 L 138.3 -70.9 L 138.3 -70.9 Q 138.3 -80.5 143.5 -86.4 L 143.5 -86.4 L 143.5 -86.4 Q 149.2 -92.7 159 -92.7 L 159 -92.7 L 159 -92.7 Q 165 -92.7 168.1 -90.2 L 168.1 -90.2 L 168.1 -90.2 Q 170.3 -88.3 170.3 -85.1 L 170.3 -85.1 L 170.3 -85.1 Q 170.3 -73.9 150.8 -73.9 L 150.8 -73.9 L 150.8 -73.9 Q 150.6 -72.2 150.6 -70.8 L 150.6 -70.8 L 150.6 -70.8 Q 150.6 -67.8 151.9 -66.7 L 151.9 -66.7 L 151.9 -66.7 Q 153.2 -65.6 155.6 -65.6 L 155.6 -65.6 L 155.6 -65.6 Q 158.1 -65.6 160.7 -66.7 L 160.7 -66.7 L 160.7 -66.7 Q 163.3 -67.8 164.3 -69.6 Z M 151.3 -76.6 L 151.3 -76.6 L 151.3 -76.6 Q 155.8 -76.6 158.5 -79.4 L 158.5 -79.4 L 158.5 -79.4 Q 161.1 -82.1 161.1 -86.4 L 161.1 -86.4 L 161.1 -86.4 Q 161.1 -87.9 160.5 -88.7 L 160.5 -88.7 L 160.5 -88.7 Q 160 -89.5 158.9 -89.5 L 158.9 -89.5 L 158.9 -89.5 Q 157.8 -89.5 156.9 -89.1 L 156.9 -89.1 L 156.9 -89.1 Q 156 -88.6 155 -87.2 L 155 -87.2 L 155 -87.2 Q 152.6 -84 151.3 -76.6 Z M 191.6 -81.3 L 191.6 -81.3 L 191.6 -81.3 Q 192.5 -83.7 192.5 -85.7 L 192.5 -85.7 L 192.5 -85.7 Q 192.5 -89.5 189.4 -89.5 L 189.4 -89.5 L 189.4 -89.5 Q 187.8 -89.5 186.5 -88 L 186.5 -88 L 186.5 -88 Q 185.2 -86.6 185.2 -84.8 L 185.2 -84.8 L 185.2 -84.8 Q 185.2 -83.5 186.2 -82.5 L 186.2 -82.5 L 186.2 -82.5 Q 187.7 -81.1 191.5 -78.8 L 191.5 -78.8 L 191.5 -78.8 Q 195.3 -76.5 196.7 -74.6 L 196.7 -74.6 L 196.7 -74.6 Q 198.1 -72.7 198.1 -70.1 L 198.1 -70.1 L 198.1 -70.1 Q 198.1 -67.5 196.9 -65.2 L 196.9 -65.2 L 196.9 -65.2 Q 195.6 -62.8 193.4 -61.1 L 193.4 -61.1 L 193.4 -61.1 Q 188.6 -57.5 180.9 -57.5 L 180.9 -57.5 L 180.9 -57.5 Q 176.8 -57.5 173.6 -59.7 L 173.6 -59.7 L 173.6 -59.7 Q 170.4 -61.8 170.4 -64.3 L 170.4 -64.3 L 170.4 -64.3 Q 170.4 -66.8 172.2 -68.3 L 172.2 -68.3 L 172.2 -68.3 Q 174 -69.8 176.7 -69.8 L 176.7 -69.8 L 176.7 -69.8 Q 179.4 -69.8 181 -68.7 L 181 -68.7 L 181 -68.7 Q 180.2 -66.6 180.2 -65.2 L 180.2 -65.2 L 180.2 -65.2 Q 180.2 -61 183.8 -61 L 183.8 -61 L 183.8 -61 Q 185.3 -61 186.4 -62 L 186.4 -62 L 186.4 -62 Q 187.4 -62.9 187.4 -64.6 L 187.4 -64.6 L 187.4 -64.6 Q 187.4 -67.8 181.9 -71.3 L 181.9 -71.3 L 181.9 -71.3 Q 177.4 -74.2 176.4 -75.4 L 176.4 -75.4 L 176.4 -75.4 Q 174.6 -77.4 174.6 -80 L 174.6 -80 L 174.6 -80 Q 174.6 -82.6 175.9 -85 L 175.9 -85 L 175.9 -85 Q 177.1 -87.4 179.3 -89.2 L 179.3 -89.2 L 179.3 -89.2 Q 184 -92.7 192.1 -92.7 L 192.1 -92.7 L 192.1 -92.7 Q 196.3 -92.7 198.7 -91.1 L 198.7 -91.1 L 198.7 -91.1 Q 201.2 -89.4 201.2 -86.6 L 201.2 -86.6 L 201.2 -86.6 Q 201.2 -83.8 199.5 -82.2 L 199.5 -82.2 L 199.5 -82.2 Q 197.8 -80.6 194.7 -80.6 L 194.7 -80.6 L 194.7 -80.6 Q 192.6 -80.6 191.6 -81.3 Z M 242.7 -79.4 L 255.6 -80.6 L 255.6 -80.6 Q 251 -70.5 251 -58.8 L 251 -58.8 L 251 -58.8 Q 249.3 -57.5 246.7 -57.5 L 246.7 -57.5 L 246.7 -57.5 Q 244.2 -57.5 242.6 -58.7 L 242.6 -58.7 L 242.6 -58.7 Q 241 -59.9 240.7 -61.1 L 240.7 -61.1 L 240.7 -61.1 Q 239.1 -59.5 236.5 -58.5 L 236.5 -58.5 L 236.5 -58.5 Q 233.9 -57.5 231.2 -57.5 L 231.2 -57.5 L 231.2 -57.5 Q 228.4 -57.5 226 -58.4 L 226 -58.4 L 226 -58.4 Q 223.6 -59.3 221.7 -61.3 L 221.7 -61.3 L 221.7 -61.3 Q 217.7 -65.7 217.7 -73.9 L 217.7 -73.9 L 217.7 -73.9 Q 217.7 -86.7 224.5 -94.4 L 224.5 -94.4 L 224.5 -94.4 Q 231.5 -102.3 244 -102.3 L 244 -102.3 L 244 -102.3 Q 252.7 -102.3 255.7 -97.9 L 255.7 -97.9 L 255.7 -97.9 Q 256.7 -96.5 256.7 -94.8 L 256.7 -94.8 L 256.7 -94.8 Q 256.7 -93.1 256 -91.6 L 256 -91.6 L 256 -91.6 Q 255.2 -90.2 254.1 -89 L 254.1 -89 L 254.1 -89 Q 251.3 -86.5 247.9 -86.5 L 247.9 -86.5 L 247.9 -86.5 Q 246.6 -86.5 245.3 -86.9 L 245.3 -86.9 L 245.3 -86.9 Q 245.6 -88.8 245.6 -91.1 L 245.6 -91.1 L 245.6 -91.1 Q 245.6 -93.3 245.4 -94.3 L 245.4 -94.3 L 245.4 -94.3 Q 245.2 -95.4 244.9 -96.2 L 244.9 -96.2 L 244.9 -96.2 Q 244 -97.9 242.2 -97.9 L 242.2 -97.9 L 242.2 -97.9 Q 240.4 -97.9 238.4 -96 L 238.4 -96 L 238.4 -96 Q 236.3 -94 234.7 -90.8 L 234.7 -90.8 L 234.7 -90.8 Q 231.2 -83.7 231.2 -75 L 231.2 -75 L 231.2 -75 Q 231.2 -71 232.8 -68.2 L 232.8 -68.2 L 232.8 -68.2 Q 234.4 -65.2 237.4 -65.2 L 237.4 -65.2 L 237.4 -65.2 Q 238.4 -65.2 239.3 -65.7 L 239.3 -65.7 L 239.3 -65.7 Q 240.2 -66.2 240.6 -66.6 L 240.6 -66.6 L 242.7 -79.4 Z M 261.5 -60.7 L 261.5 -60.7 L 261.5 -60.7 Q 260 -62.4 259.3 -65 L 259.3 -65 L 259.3 -65 Q 258.7 -67.7 258.7 -71.9 L 258.7 -71.9 L 258.7 -71.9 Q 258.7 -76.2 260.1 -80.1 L 260.1 -80.1 L 260.1 -80.1 Q 261.6 -84 264.3 -86.9 L 264.3 -86.9 L 264.3 -86.9 Q 269.8 -92.7 278.9 -92.7 L 278.9 -92.7 L 278.9 -92.7 Q 282.2 -92.7 284.5 -91.7 L 284.5 -91.7 L 295.5 -92.7 L 290.7 -67.8 L 290.7 -67.8 Q 290.5 -67 290.5 -65.6 L 290.5 -65.6 L 290.5 -65.6 Q 290.5 -64.2 291.4 -63.3 L 291.4 -63.3 L 291.4 -63.3 Q 292.3 -62.4 293.6 -62.3 L 293.6 -62.3 L 293.6 -62.3 Q 292.9 -60.1 290.6 -58.8 L 290.6 -58.8 L 290.6 -58.8 Q 288.2 -57.5 285.6 -57.5 L 285.6 -57.5 L 285.6 -57.5 Q 283 -57.5 281.2 -58.5 L 281.2 -58.5 L 281.2 -58.5 Q 279.5 -59.5 279 -61.2 L 279 -61.2 L 279 -61.2 Q 277.9 -59.6 275.8 -58.6 L 275.8 -58.6 L 275.8 -58.6 Q 273.6 -57.5 270.7 -57.5 L 270.7 -57.5 L 270.7 -57.5 Q 267.8 -57.5 265.4 -58.3 L 265.4 -58.3 L 265.4 -58.3 Q 263 -59.1 261.5 -60.7 Z M 275 -86.7 L 275 -86.7 L 275 -86.7 Q 274.3 -85.6 273.7 -83.6 L 273.7 -83.6 L 273.7 -83.6 Q 273 -81.7 272 -76.5 L 272 -76.5 L 272 -76.5 Q 270.9 -71.2 270.9 -67.5 L 270.9 -67.5 L 270.9 -67.5 Q 270.9 -63.8 271.5 -62.7 L 271.5 -62.7 L 271.5 -62.7 Q 272.1 -61.6 273.1 -61.6 L 273.1 -61.6 L 273.1 -61.6 Q 275.1 -61.6 276.6 -63.6 L 276.6 -63.6 L 276.6 -63.6 Q 278.1 -65.5 278.7 -69 L 278.7 -69 L 282.1 -87.8 L 282.1 -87.8 Q 280.8 -88.9 279.2 -88.9 L 279.2 -88.9 L 279.2 -88.9 Q 277.6 -88.9 276.7 -88.4 L 276.7 -88.4 L 276.7 -88.4 Q 275.8 -87.9 275 -86.7 Z M 314.2 -62.3 L 314.2 -62.3 L 314.2 -62.3 Q 312.2 -57.5 305.9 -57.5 L 305.9 -57.5 L 305.9 -57.5 Q 302.7 -57.5 300.7 -59.8 L 300.7 -59.8 L 300.7 -59.8 Q 299 -61.6 299 -63.8 L 299 -63.8 L 299 -63.8 Q 299 -68.6 301.2 -79 L 301.2 -79 L 305.9 -103.6 L 318.9 -104.9 L 312.7 -72.5 L 312.7 -72.5 Q 311.6 -67.8 311.6 -66.1 L 311.6 -66.1 L 311.6 -66.1 Q 311.6 -62.5 314.2 -62.3 Z M 335 -62.3 L 335 -62.3 L 335 -62.3 Q 333 -57.5 326.6 -57.5 L 326.6 -57.5 L 326.6 -57.5 Q 323.4 -57.5 321.4 -59.8 L 321.4 -59.8 L 321.4 -59.8 Q 319.7 -61.6 319.7 -63.8 L 319.7 -63.8 L 319.7 -63.8 Q 319.7 -68.6 322 -79 L 322 -79 L 326.6 -103.6 L 339.6 -104.9 L 333.4 -72.5 L 333.4 -72.5 Q 332.3 -67.8 332.3 -66.1 L 332.3 -66.1 L 332.3 -66.1 Q 332.3 -62.5 335 -62.3 Z M 366.3 -69.6 L 366.3 -69.6 L 366.3 -69.6 Q 367.9 -68.6 367.9 -66.2 L 367.9 -66.2 L 367.9 -66.2 Q 367.9 -63.8 366.7 -62.2 L 366.7 -62.2 L 366.7 -62.2 Q 365.5 -60.7 363.5 -59.7 L 363.5 -59.7 L 363.5 -59.7 Q 359.4 -57.5 355 -57.5 L 355 -57.5 L 355 -57.5 Q 350.6 -57.5 348 -58.5 L 348 -58.5 L 348 -58.5 Q 345.4 -59.5 343.7 -61.3 L 343.7 -61.3 L 343.7 -61.3 Q 340.3 -64.6 340.3 -70.9 L 340.3 -70.9 L 340.3 -70.9 Q 340.3 -80.5 345.5 -86.4 L 345.5 -86.4 L 345.5 -86.4 Q 351.2 -92.7 360.9 -92.7 L 360.9 -92.7 L 360.9 -92.7 Q 367 -92.7 370 -90.2 L 370 -90.2 L 370 -90.2 Q 372.3 -88.3 372.3 -85.1 L 372.3 -85.1 L 372.3 -85.1 Q 372.3 -73.9 352.8 -73.9 L 352.8 -73.9 L 352.8 -73.9 Q 352.6 -72.2 352.6 -70.8 L 352.6 -70.8 L 352.6 -70.8 Q 352.6 -67.8 353.9 -66.7 L 353.9 -66.7 L 353.9 -66.7 Q 355.2 -65.6 357.6 -65.6 L 357.6 -65.6 L 357.6 -65.6 Q 360.1 -65.6 362.6 -66.7 L 362.6 -66.7 L 362.6 -66.7 Q 365.2 -67.8 366.3 -69.6 Z M 353.3 -76.6 L 353.3 -76.6 L 353.3 -76.6 Q 357.8 -76.6 360.4 -79.4 L 360.4 -79.4 L 360.4 -79.4 Q 363.1 -82.1 363.1 -86.4 L 363.1 -86.4 L 363.1 -86.4 Q 363.1 -87.9 362.5 -88.7 L 362.5 -88.7 L 362.5 -88.7 Q 362 -89.5 360.9 -89.5 L 360.9 -89.5 L 360.9 -89.5 Q 359.8 -89.5 358.9 -89.1 L 358.9 -89.1 L 358.9 -89.1 Q 357.9 -88.6 357 -87.2 L 357 -87.2 L 357 -87.2 Q 354.6 -84 353.3 -76.6 Z M 394.5 -76.8 L 394.5 -76.8 L 394.5 -76.8 Q 396.8 -80.9 396.8 -85.1 L 396.8 -85.1 L 396.8 -85.1 Q 396.8 -87.8 394.8 -87.8 L 394.8 -87.8 L 394.8 -87.8 Q 393.3 -87.8 391.7 -85.2 L 391.7 -85.2 L 391.7 -85.2 Q 390 -82.6 389.5 -79.2 L 389.5 -79.2 L 386.2 -58.8 L 372.9 -57.5 L 379.4 -91.5 L 390 -92.7 L 388.9 -86.3 L 388.9 -86.3 Q 392 -92.7 399 -92.7 L 399 -92.7 L 399 -92.7 Q 402.7 -92.7 404.8 -90.8 L 404.8 -90.8 L 404.8 -90.8 Q 406.8 -88.9 406.8 -85 L 406.8 -85 L 406.8 -85 Q 406.8 -81 404.2 -78.5 L 404.2 -78.5 L 404.2 -78.5 Q 401.6 -76 397.2 -76 L 397.2 -76 L 397.2 -76 Q 395.3 -76 394.5 -76.8 Z M 428.1 -66.1 L 428.1 -66.1 L 428.1 -66.1 Q 424.8 -62.6 418.7 -62.6 L 418.7 -62.6 L 418.7 -62.6 Q 411.1 -62.6 409.5 -68.2 L 409.5 -68.2 L 409.5 -68.2 Q 409 -69.8 409 -71.7 L 409 -71.7 L 409 -71.7 Q 409 -73.5 409.4 -75.5 L 409.4 -75.5 L 412.4 -91.5 L 425.4 -92.7 L 421.9 -74.1 L 421.9 -74.1 Q 421.7 -73.3 421.6 -72.4 L 421.6 -72.4 L 421.6 -72.4 Q 421.4 -71.5 421.4 -70.6 L 421.4 -70.6 L 421.4 -70.6 Q 421.4 -69.6 421.7 -69 L 421.7 -69 L 421.7 -69 Q 422 -68.4 422.5 -68 L 422.5 -68 L 422.5 -68 Q 423.2 -67.5 424.6 -67.5 L 424.6 -67.5 L 424.6 -67.5 Q 426 -67.5 427.2 -69.2 L 427.2 -69.2 L 427.2 -69.2 Q 428.3 -70.9 428.9 -73.7 L 428.9 -73.7 L 432.4 -91.5 L 445 -92.7 L 440.2 -67.6 L 440.2 -67.6 Q 437.9 -55.3 433 -50.4 L 433 -50.4 L 433 -50.4 Q 430.5 -47.9 427.3 -47 L 427.3 -47 L 427.3 -47 Q 424.1 -46 419.9 -46 L 419.9 -46 L 419.9 -46 Q 413.2 -46 409.3 -48.1 L 409.3 -48.1 L 409.3 -48.1 Q 405.5 -50.2 405.5 -53.7 L 405.5 -53.7 L 405.5 -53.7 Q 405.5 -56.3 407.5 -57.8 L 407.5 -57.8 L 407.5 -57.8 Q 409.5 -59.3 412.5 -59.3 L 412.5 -59.3 L 412.5 -59.3 Q 415.2 -59.3 417.3 -58.2 L 417.3 -58.2 L 417.3 -58.2 Q 418.5 -57.5 419.1 -56.6 L 419.1 -56.6 L 419.1 -56.6 Q 417.6 -55.3 417.6 -53.2 L 417.6 -53.2 L 417.6 -53.2 Q 417.6 -50.4 420.1 -50.4 L 420.1 -50.4 L 420.1 -50.4 Q 424.4 -50.4 426.8 -60.1 L 426.8 -60.1 L 426.8 -60.1 Q 427.5 -63 428.1 -66.1 Z" fill="url(#editing-gradow-gradient)"></path></g></g><style>text {
  font-size: 64px;
  font-family: Arial Black;
  dominant-baseline: central;
  text-anchor: middle;
}</style></svg>